/* XPM */
static char *font[] = {
/* columns rows colors chars-per-pixel */
"1045 17 2 1 ",
"  c black",
". c None",
/* pixels */
".....................................................................................................................................................................................................................................................................................................................................................................................................................................................................................................................................................................................................................................................................................................................................................................................................................................................................................................................................................................................................................................................................................",
".....................................................................................................................................................................................................................................................................................................................................................................................................................................................................................................................................................................................................................................................................................................................................................................................................................................................................................................................................................................................................................................................................................",
"............... ........ ..  ...... ..  ........ ......  .....  ...... ........ .............  ...... .......... ..  .......................................................  ....     ........ ........     ......     .........    ..         ......   ....         ....     ......     ...............................  ................. ..........     .................     ....       ......     ....       ....         ..         ....       ..  .....  ....     ...........  ..  .....  ..  .........  .....  ..  .....  ....     ....       ......     ....       ......       ..         ..  .....  ..  .....  ..  .....  ..  .....  ..  .....  ..         ....     ....  ...........     ........ ................... ...................  ...........................  ..................    .............  ............. .............  .... ..........   ....................................................................................... .............................................................................  ........ ........ ...................",
"..............  ........  .  ......  .  .......  ......  .....  .....  ........  ............  ......  .........  .  .......................................................  ....     .......  ........     ......     .........    ..         .....    ....         ....     ......     ...............................  .................  .........     .................     ....       ......     ....       ....         ..         ....       ..  .....  ....     ...........  ..  .....  ..  .........  .....  ..  .....  ....     ....       ......     ....       ......       ..         ..  .....  ..  .....  ..  .....  ..  .....  ..  .....  ..         ....     ....  ...........     .......  ...................  ..................  ...........................  ..................    .............  ............  .............  ....  .........   ......................................................................................  .............................................................................  .......  ........  ..................",
"..............  ........  .  ......  .  ......       ..  ...   .....  .  ......  ..........   ........  .........   ........  ............................................   ...  .....  ....   ......  .....  ..  .....  .....   .  ..  ...........  .......  .....  ..  .....  ..  .....  ...........................   ...................  ......  .....  ....     ....  .....  ..  .....  ..  .....  ..  .....  ..  .........  .........  .........  .....  .....   ............  ..  ...   ...  .........    .    ..    ...  ..  .....  ..  .....  ..  .....  ..  .....  ..  ............   .....  .....  ..  .....  ..  .....  ...   .   ....   .   ..........  ....  ........   ............  ......  .  ..................  .................  ...........................  ................   ................  .................................  ..........  ......................................................................................  ...........................................................................   ........  .........  .................",
"..............  ........  .  ......  .  ......       ..  ...  ......  .  ......  ..........  .........   ........   ........  ............................................  ....  .....  ....   ......  .....  ..  .....  .....  ..  ..  ...........  .......  .....  ..  .....  ..  .....  ...............  ..........  ....................   .....  .....  ....     ....  .....  ..  .....  ..  .....  ..  .....  ..  .........  .........  .........  .....  .....  .............  ..  ...  ....  .........    .    ..    ...  ..  .....  ..  .....  ..  .....  ..  .....  ..  ............  ......  .....  ..  .....  ..  .....  ....  .  ......  .  ...........  ....  .........  ............  ......  .  ..................  .................  ...........................  ................   .......       ..  .................................  ..........  .......................................  .    ......   ..  ...........................   .................................................  .....  ................  .........  .........  .................",
"..............  .................         ..  ..............  .......   ..................  ............  ......  .  .......  ............................................  ....  ...    .....  .............  .........  ....  ...  ..       ....  ................  ..  .....  ..  .....  .....  ........  .........  .......         .......  ...........  ..  .....  ..         ..       ....  .........  .....  ..     ......     ......  ...    ..         .....  .............  ..      .....  .........  .   .  ..  .  ..  ..  .....  ..       ....  .....  ..       ......     .......  ......  .....  ..  .....  ..  .....  .....   ........   ..........  ......  .........  ............  ....  .....  ..........................     ....  .    ......     ......   ..  ....     ......       ...        ..  .    ......   .............  ....  ...  .....  ......    .  ....       ......     ....  .     ....     .  ..  .    ......       ....     ....  .....  ..  .....  ..  .....  ..  .....  ..  .....  ..         .....  .........  .........  ........  ...  ..",
"..............  .................         ..  ..............  .......  ...................  ............  ......  .  .......   ...........................................  ....  ...    .....  .............  .........  ...   ...  ..        ...  ................  ..  .....  ..  .....  .....  ..................   .......         .......   ..........  ..  .....  ..         ..        ...  .........  .....  ..     ......     ......  ...    ..         .....  .............  ..      .....  .........  .  ..  ..  .   .  ..  .....  ..       ....  .....  ..        .....      ......  ......  .....  ..  .....  ..  .....  .....   ........  ...........  ......  .........  ............  ....  .....  ..........................      ...  .     ....       ....     .  ...       .....       ..  .....  ..  .     .....   .............  ....  ...  .....  ......    .   ...        ....       ...    ...  ..  ...    ..  .     ....        ....     ....  .....  ..  .....  ..  .....  ..  .....  ..  .....  ..         .....  .........  .........   ......   ...  ..",
"..............  ...................  .  ......     .......  ........   ..  ...............  ............  ...............         .............         ................  ......  .  ..  .....  .........    .......    ....  .....  .........  ..       .........  ......     ......       ........................  ...........................  .......  ....  .  ..  ..  .....  ..  .....  ..  .........  .....  ..  .........  .........  .....  ..  .....  .....  .............  ..  ...  ....  .........  .....  ..  ...    ..  .....  ..  .........  .....  ..  .....  .........  .....  ......  .....  ..  .....  ..  .....  ....  .  .......  .........  ........  ..........  ...........  ............................................  ..    ...  ..  .....  ..  ...    ..  .....  .....  ......  .....  ..    ...  .....  .............  ....  .  .......  ......  .  ..  ..  .....  ..  .....  ..   ....  ..  ...    ..    ...  ..  ............  ......  .....  ..  .....  ..  .....  ....  .  ....  .....  .......  ....    ..........  ...........    ..  .  ..  ..",
"..............  .................         ....       ....   ......         ...............  ............  ...............         .............         ...............   ......     ..  .....  ........     ........     ..         .........  ..         ......   ....         ....       ........................   .........................   ......   ....  .  ..  ..  .....  ..  .....  ..  .........  .....  ..  .........  .........  .....  ..  .....  .....  .............  ..  ...    ..  .........  .....  ..  ...    ..  .....  ..  .........  .....  ..  .....  .........  .....  ......  .....  ..   ...   ..  .. ..  ..   ..    .....  ........   ........  ...........   .........  .......................................       ..   ....  ..  .....  ..  ...    ..         .....  ......  .....  ..   ....  .....  .............  ....     .......  ......  .  ..  ..  .....  ..  .....  ..  .....  ..  .....  ..   ....  ..       .......  ......  .....  ..  .....  ..  .. ..  ....     ....  .....  ......   ....     .........  ..........     ..  ..     ..",
"..............  .................         .........  ....  .......  .    .................  ............  ..................  .........................................  .......    ...  .....  ........  ..............  ..         .........  ..  .....  .....  ......  .....  .........  ..........................  .......................  .......  ......  .  ..  ..  .....  ..  .....  ..  .........  .....  ..  .........  .........  .....  ..  .....  .....  .............  ..  .....  ..  .........  .....  ..  .....  ..  .....  ..  .........  .....  ..  .....  .........  .....  ......  .....  ....  .  ....  .  ..  ..  .....  .....  ........  .........  ............  .........  .......................................       ..  .....  ..  .........  .....  ..         .....  .......        ..  .....  .....  .............  ....   .........  ......  .  ..  ..  .....  ..  .....  ..        ....        ..  ...........     .......  ......  .....  ..  .....  ..  .  ..  .....  .......        .....  .........  .........  .........  ......  ...  ....",
"..................................   .   ...        .....  ...  ..  ...  ..................  ..........  ...................  .........................................  .......  .....  .....  ......  .....  ..  .....  .........  ..  .....  ..  .....  .....  ......  .....  .......   ............................  ......         ......  ................  .      ..  .....  ..  .....  ..  .....  ..  .....  ..  .........  .........  .....  ..  .....  .....  ......  .....  ..  .....  ..  .........  .....  ..  .....  ..  .....  ..  .........  ...   ...  .....  ..  .....  .....  ......  .....  ....  .  ....    .    ..  .....  .....  ......  ...........  ............  .........  .....................................  .....  ..  .....  ..  .....  ..  .....  ..  ............  ........       ..  .....  .....  ......  .....  ....  .  .......  ......  .....  ..  .....  ..  .....  ..       ......       ..  ................  .....  ......  .....  ...   .   ...  .  ..  ....  .  ......       ....  ..........  .........  .........  .................",
"...................................  .  ....       ......  ...  ..  ...  ..................  .........  ....................  .........................................  .......  .....  .....  ......  .....  ..  .....  .........  ..  .....  ..  .....  .....  ......  .....  .......  .................  ..........  ......         .....  .................  .      ..  .....  ..  .....  ..  .....  ..  .....  ..  .........  .........  .....  ..  .....  .....  ......  .....  ..  .....  ..  .........  .....  ..  .....  ..  .....  ..  .........  ...  ....  .....  ..  .....  .....  ......  .....  ....  .  ....    .    ..  .....  .....  ......  ...........  ............  .........  .....................................  .....  ..  .....  ..  .....  ..  .....  ..  ............  .............  ..  .....  .....  ......  .....  ....  .  .......  ......  .....  ..  .....  ..  .....  ..  ................  ..  ................  .....  ......  .....  ....  .  ....  .  ..  ....  .  ...........  ....  ..........  .........  .........  .................",
"..............  ...................  .  .......   .....  .....  ...     .  ..................  ......  ................................  ....................  ......  ..........      ....         ..         ...      ...........  ...      .....      .......  .......      ......    ........  .......   ............  .................  ..........  ......  .........  .....  ..       .....      ....       ....         ..  ..........      ....  .....  ....     .....      ....  .....  ..         ..  .....  ..  .....  ...      ....  ..........     .  ..  .....  ...      .......  .......      .......   .....  .....  ..  .....  .....  ......         ....     ...........  ....     ......................................        ..       .....      .....        ...        .....  .............  ..  .....  .......    ..  .....  ....  ...  .......    ..  .....  ..  .....  ...      ....  ................  ..  .........       .........    ...        .....   ......        ..  .....  .........  ..         .......  .......  ........  ..................",
"..............  ...................  .  .......  ......  .....  ....   ..  ..................  ......  ................................  ....................  ......  ...........     ....         ..         ....     ...........  ....     ......     .......  ........     ......   .........  ......  ..............  .................  ..........  ......  .........  .....  ..       ......     ....       ....         ..  ...........     ....  .....  ....     ......     ....  .....  ..         ..  .....  ..  .....  ....     ....  ...........   ..  ..  .....  ....     .......  ........     .......  ......  .....  ..  .....  .....  ......         ....     ...........  ....     .......................................       ..       ......     ......       ....       .....  ......       ....  .....  .......    ..  .....  ....  ...  .......    ..  .....  ..  .....  ....     ....  ................  ..  .........       .........    ....       .....  ........       ..  .....  ..       ....         .......  .......  ........  ..................",
"......................................................................................................................................  .................................................................................................................................................................  .......................................................       ............................................................................................................................................................................................................................................................................................................................................         ...............................................................................       ............................     ...........................................................  ................  ...............................................................................       ...........................................................",
"......................................................................................................................................  ..........................................................................................................................................................................................................................       ............................................................................................................................................................................................................................................................................................................................................         ..................................................................................................................     ................................................................................................................................................................................................................................"
};
